<svg xmlns="http://www.w3.org/2000/svg" width="10cm" height="10cm" viewBox="300 370 180 180" preserveAspectRatio="xMidYMid meet">
  <path d="M464.542 451.696a71.659 71.659 0 1 1-143.317 0 71.659 71.659 0 1 1 143.317 0z" style="fill:none;stroke:#0ea5e9;stroke-width:1px;stroke-linecap:butt;stroke-linejoin:miter;stroke-miterlimit:4;stroke-dasharray:none;stroke-dashoffset:0;stroke-opacity:1"/>
  <path d="M320.95 451.366h63.216" style="fill:none;stroke:#0ea5e9;stroke-width:1px;stroke-linecap:butt;stroke-linejoin:miter;stroke-miterlimit:4;stroke-dasharray:none;stroke-opacity:1"/>
  <path d="M393.098 522.31v-28.592" style="fill:none;stroke:#0ea5e9;stroke-width:1px;stroke-linecap:butt;stroke-linejoin:miter;stroke-miterlimit:4;stroke-dasharray:none;stroke-opacity:1;marker-end:none"/>
  <path d="m388.627 498.625 4.447-5.228 4.626 5.02m-9.02-11.75 4.448-5.228 4.625 5.018m-9.073-9.782 4.448-5.228 4.625 5.019m-8.916-10.019 4.448-5.228 4.626 5.019m-9.231-9.153 4.448-5.228 4.625 5.018" style="fill:none;stroke:#0ea5e9;stroke-width:1px;stroke-linecap:butt;stroke-linejoin:miter;stroke-miterlimit:4;stroke-dasharray:none;stroke-opacity:1"/>
  <path d="M343.066 451.923v4.702" style="fill:none;stroke:#0ea5e9;stroke-width:1px;stroke-linecap:butt;stroke-linejoin:miter;stroke-miterlimit:4;stroke-dasharray:none;stroke-opacity:1"/>
  <path d="M363.107 452.028v4.649" style="fill:none;stroke:#0ea5e9;stroke-width:1px;stroke-linecap:butt;stroke-linejoin:miter;stroke-miterlimit:4;stroke-dasharray:none;stroke-opacity:1"/>
  <path d="M383.106 452.124v4.508" style="fill:none;stroke:#0ea5e9;stroke-width:1px;stroke-linecap:butt;stroke-linejoin:miter;stroke-miterlimit:4;stroke-dasharray:none;stroke-opacity:1"/>
  <path d="M379.226 450.979v3.758m-4.026-3.719v3.758m-4.045-3.738v3.758m-4.026-3.798v3.759m-7.988-3.749v3.759m-4.026-3.72v3.759m-4.045-3.739v3.759m-4.027-3.798v3.758m-7.886-3.778v3.759m-4.026-3.72v3.759m-4.045-3.739v3.759m-4.026-3.798v3.758m-3.943-3.768v3.758" style="fill:none;stroke:#0ea5e9;stroke-width:1px;stroke-linecap:butt;stroke-linejoin:miter;stroke-miterlimit:4;stroke-dasharray:none;stroke-opacity:1"/>
  <path d="M464.262 451.354h-62.264" style="fill:none;stroke:#0ea5e9;stroke-width:1px;stroke-linecap:butt;stroke-linejoin:miter;stroke-miterlimit:4;stroke-dasharray:none;stroke-opacity:1"/>
  <path d="M443.122 451.923v4.701" style="fill:none;stroke:#0ea5e9;stroke-width:1px;stroke-linecap:butt;stroke-linejoin:miter;stroke-miterlimit:4;stroke-dasharray:none;stroke-opacity:1"/>
  <path d="M423.082 452.028v4.649" style="fill:none;stroke:#0ea5e9;stroke-width:1px;stroke-linecap:butt;stroke-linejoin:miter;stroke-miterlimit:4;stroke-dasharray:none;stroke-opacity:1"/>
  <path d="M403.082 452.123v4.509" style="fill:none;stroke:#0ea5e9;stroke-width:1px;stroke-linecap:butt;stroke-linejoin:miter;stroke-miterlimit:4;stroke-dasharray:none;stroke-opacity:1"/>
  <path d="M406.962 450.978v3.759m4.027-3.719v3.758m4.044-3.739v3.759m4.027-3.798v3.759m7.988-3.749v3.758m4.026-3.719v3.759m4.045-3.739v3.758m4.026-3.798v3.759m7.886-3.778v3.758m4.027-3.719v3.759m4.044-3.739v3.758m4.027-3.798v3.759m3.943-3.768v3.758m-111.033 46.581h34.047m-28.956-2.948v2.42m6.008-2.434v2.42m5.98-2.42v2.42m6.008-2.42v2.42m6.008-2.42v2.42m-28.872-5.465c27.045-1.535 30.837-17.376 30.82-20.14" style="fill:none;stroke:#0ea5e9;stroke-width:1px;stroke-linecap:butt;stroke-linejoin:miter;stroke-miterlimit:4;stroke-dasharray:none;stroke-opacity:1"/>
</svg>

